<svg xmlns="http://www.w3.org/2000/svg" xmlns:xlink="http://www.w3.org/1999/xlink" version="1.1" x="0px" y="0px" viewBox="0 0 100 100" enable-background="new 0 0 100 100" xml:space="preserve"><path style="fill:#FFF;" d="M67,86.5h-2.5l1.2-2.2c0.5-0.9,0.3-2-0.6-2.5c-0.8-0.5-1.9-0.1-2.4,0.8l-1.2,2.1l-1.2-2.1c-0.5-0.9-1.6-1.3-2.4-0.8  c-0.8,0.5-1.1,1.6-0.6,2.5l1.2,2.2H56c-1,0-1.9,0.8-1.9,1.7c0,0.9,0.9,1.7,1.9,1.7h2.5l-1.2,2.2c-0.5,0.9-0.3,2,0.6,2.5  c0.8,0.5,1.9,0.1,2.4-0.8l1.2-2.1l1.2,2.1c0.5,0.9,1.6,1.3,2.4,0.8s1.1-1.6,0.6-2.5l-1.2-2.2H67c1,0,1.9-0.8,1.9-1.7  S68.2,86.5,67,86.5z"/><path style="fill:#FFF;" d="M45.5,78.3H43l1.2-2.2c0.5-0.9,0.3-2-0.6-2.5c-0.8-0.5-1.9-0.1-2.4,0.8L40,76.5l-1.2-2.1c-0.5-0.9-1.6-1.3-2.4-0.8  c-0.8,0.5-1.1,1.6-0.6,2.5l1.2,2.2h-2.5c-1,0-1.9,0.8-1.9,1.7c0,0.9,0.9,1.7,1.9,1.7H37l-1.2,2.2c-0.5,0.9-0.3,2,0.6,2.5  c0.8,0.5,1.9,0.1,2.4-0.8l1.2-2.1l1.2,2.1c0.5,0.9,1.6,1.3,2.4,0.8c0.8-0.5,1.1-1.6,0.6-2.5L43,81.7h2.5c1,0,1.9-0.8,1.9-1.7  C47.4,79,46.5,78.3,45.5,78.3z"/><path style="fill:#FFF;" d="M62.4,15.7h0.5c1,0,1.9-0.8,1.9-1.9V7.1c0-1-0.8-1.9-1.9-1.9h-0.5c-1,0-1.9,0.8-1.9,1.9v6.8C60.6,14.9,61.4,15.7,62.4,15.7z  "/><path  style="fill:#FFF;" d="M73.7,20.3c0.7,0.7,1.9,0.7,2.6,0l4.8-4.8c0.7-0.7,0.7-1.9,0-2.6l-0.3-0.3c-0.7-0.7-1.9-0.7-2.6,0l-4.8,4.8  c-0.7,0.7-0.7,1.9,0,2.6L73.7,20.3z"/><path  style="fill:#FFF;" d="M86.5,28.8h-6.7c-1,0-1.9,0.8-1.9,1.9v0.5c0,1,0.8,1.9,1.9,1.9h6.8c1,0,1.9-0.8,1.9-1.9v-0.5C88.4,29.7,87.7,28.8,86.5,28.8  z"/><path style="fill:#FFF;" d="M49.1,20.3c0.7,0.7,1.9,0.7,2.6,0L52,20c0.7-0.7,0.7-1.9,0-2.6l-4.8-4.8c-0.7-0.7-1.9-0.7-2.6,0l-0.3,0.3  c-0.7,0.7-0.7,1.9,0,2.6L49.1,20.3z"/><path style="fill:#FFF;" d="M71.2,39.1c-0.4,0-0.8,0-1.1,0.1c2.2-2,3.7-4.9,3.7-8.2c0-6.1-4.9-11-11-11c-5.1,0-9.5,3.5-10.7,8.3c-0.1,0-0.1,0-0.2,0  c-3.9-3.4-8-5-12.8-5c-10.3,0-18.6,7.6-20.3,18.2c-4.5,2.9-7.4,7.7-7.4,12.4c0,8.1,6.6,14.8,14.7,14.8h45.3  c8.4,0,15.4-6.8,15.4-14.8C86.7,45.8,79.7,39.1,71.2,39.1z M16.4,53.8c0-3.1,2.4-6.6,5.8-8.4l1.3-0.7l0.1-1.4  C24.5,34.7,31,28.4,39,28.4c1.1,0,2.1,0.1,3.1,0.3c1.9,0.4,3.6,1.2,5.3,2.5c0.6,0.5,1.3,1,1.9,1.6l1,1l1.3-0.3c0.1,0,0.2,0,0.3-0.1  c0.8-0.1,2-0.2,2.8-0.2c4.9,0,9,3.6,10,8.5c0,0.3,0.1,0.5,0.2,0.8l0.4,3l2.9-0.8c1-0.3,2.1-0.4,3.1-0.4c0.8,0,1.5,0.1,2.2,0.3  c2.9,0.7,5.4,2.5,6.8,5c0.7,1.3,1.2,2.7,1.2,4.2c0,5-4.8,9.4-10.2,9.4H25.9C20,63.3,16.4,58.4,16.4,53.8z"/></svg>
