<svg xmlns="http://www.w3.org/2000/svg" xmlns:xlink="http://www.w3.org/1999/xlink" version="1.1" x="0px" y="0px" viewBox="0 0 100 125" enable-background="new 0 0 100 100" xml:space="preserve"><path style="fill:#FFF;" d="M76.7,72.2h-2.5l1.2-2.2c0.5-0.9,0.3-2-0.6-2.5c-0.8-0.5-1.9-0.1-2.4,0.8l-1.2,2.1l-1.2-2.1c-0.5-0.9-1.6-1.3-2.4-0.8  c-0.8,0.5-1.1,1.6-0.6,2.5l1.2,2.2h-2.5c-1,0-1.9,0.8-1.9,1.7c0,0.9,0.9,1.7,1.9,1.7h2.5l-1.2,2.2c-0.5,0.9-0.3,2,0.6,2.5  c0.8,0.5,1.9,0.1,2.4-0.8l1.2-2.1l1.2,2.1c0.5,0.9,1.6,1.3,2.4,0.8c0.8-0.5,1.1-1.6,0.6-2.5l-1.2-2.2h2.5c1,0,1.9-0.8,1.9-1.7  C78.6,73,77.8,72.2,76.7,72.2z"/><path style="fill:#FFF;" d="M21.9,30h-2.5l1.2-2.2c0.5-0.9,0.3-2-0.6-2.5c-0.8-0.5-1.9-0.1-2.4,0.8l-1.2,2.1l-1.2-2.1c-0.5-0.9-1.6-1.3-2.4-0.8  c-0.8,0.5-1.1,1.6-0.6,2.5l1.2,2.2H11c-1,0-1.9,0.8-1.9,1.7c0,0.9,0.9,1.7,1.9,1.7h2.5l-1.2,2.2c-0.5,0.9-0.3,2,0.6,2.5  c0.8,0.5,1.9,0.1,2.4-0.8l1.2-2.1l1.2,2.1c0.5,0.9,1.6,1.3,2.4,0.8c0.8-0.5,1.1-1.6,0.6-2.5l-1.2-2.2h2.5c1,0,1.9-0.8,1.9-1.7  C23.8,30.7,22.9,30,21.9,30z"/><path style="fill:#FFF;" d="M81.8,22.8c-5.5-2.7-13-5.2-21.1-6.9c-12-2.6-32.6-4.7-34.3,3.2c-0.7,3.5,2.2,6.8,9,10.1c5.5,2.7,13,5.2,21.1,6.9  c5.7,1.2,13.3,2.3,19.9,2.3c7.4,0,13.5-1.4,14.4-5.6C91.5,29.4,88.6,26.1,81.8,22.8z M57.6,30.9c-15.7-3.4-24.8-8.5-25.8-10.7  c1.9-1.6,12.2-2.5,27.9,0.8c15.7,3.4,24.8,8.5,25.8,10.7C83.6,33.3,73.3,34.3,57.6,30.9z"/><path style="fill:#FFF;" d="M85.5,43.2c-16.7,3.5-39.1-0.4-50.9-9.1c-1.2-0.9-2.8-0.6-3.7,0.6c-0.9,1.2-0.6,2.8,0.6,3.7c9.7,7.1,25.9,11.3,41.1,11.3  c4.9,0,9.7-0.4,14.1-1.4c1.4-0.3,2.4-1.7,2-3.1C88.4,43.8,87,42.9,85.5,43.2z"/><path style="fill:#FFF;" d="M64.3,59.8c2.4,0,4.9-0.1,7.5-0.3c1.5-0.1,2.6-1.4,2.5-2.8c-0.1-1.5-1.4-2.6-2.8-2.5C54.9,55.4,45,53,34,45.2  c-1.2-0.8-2.9-0.6-3.7,0.6c-0.8,1.2-0.6,2.9,0.6,3.7C41.2,56.8,50.7,59.8,64.3,59.8z"/><path style="fill:#FFF;" d="M55.5,63.1c-10.8,0.6-15.7-2.6-20.6-6.5c-1.2-0.9-2.8-0.7-3.7,0.4c-0.9,1.1-0.7,2.8,0.4,3.7c4.9,3.9,10.7,7.7,21.5,7.7  c0.9,0,1.7,0,2.7-0.1c1.5-0.1,2.6-1.3,2.5-2.8C58.3,64.1,57.1,63,55.5,63.1z"/><path style="fill:#FFF;" d="M52.1,72.9c-4.7,0-7.1-0.7-9.5-2.9c-1.1-1-2.8-0.9-3.8,0.2c-1,1.1-0.9,2.8,0.2,3.8c3.9,3.6,8.1,4.4,13.1,4.4  c1.5,0,2.7-1.2,2.7-2.7C54.7,74.1,53.5,72.9,52.1,72.9z"/><path style="fill:#FFF;" d="M50.1,81.1c-0.6,0-1-0.1-1.3-0.3c-1.1-1-2.8-0.9-3.7,0.3c-1,1.1-0.9,2.8,0.3,3.7c1.3,1.1,2.9,1.7,4.8,1.7  c1.5,0,2.7-1.2,2.7-2.7C52.7,82.3,51.5,81.1,50.1,81.1z"/></svg>
